<svg xmlns="http://www.w3.org/2000/svg" width="48" height="48" fill="none" id="gmail">
  <path fill="#fff" d="M0 24C0 10.745 10.745 0 24 0s24 10.745 24 24-10.745 24-24 24S0 37.255 0 24Z"></path>
  <path fill="#E3E3E3" d="M34.47 33.23H13.5a1.502 1.502 0 0 1-1.497-1.498V16.583c0-.813.663-1.497 1.498-1.497H34.47c.813 0 1.498.663 1.498 1.497v15.15c0 .834-.664 1.497-1.498 1.497Z"></path>
  <path fill="#231F20" d="m14.999 33.23 8.965-7.21.064-.386-9.243-6.654-.022 13.93.236.32Z" opacity=".1"></path>
  <path fill="#D54B3D" d="M13.5 33.23a1.489 1.489 0 0 1-1.497-1.498v-15.17c0-.835.663-.984 1.498-.984.834 0 1.498.17 1.498.984V33.23H13.5Z"></path>
  <path fill="#D72B27" d="M13.5 15.792c1.07 0 1.285.32 1.285.77v16.454H13.5a1.288 1.288 0 0 1-1.284-1.284v-15.17c0-.47.214-.77 1.284-.77Zm0-.214c-.834 0-1.497.17-1.497.984v15.17c0 .835.663 1.498 1.498 1.498h1.498V16.562c0-.835-.664-.984-1.498-.984Z"></path>
  <path fill="#D54B3D" d="M34.47 33.23h-1.498V16.52c0-.835.663-.942 1.498-.942.834 0 1.497.107 1.497.941v15.235c0 .813-.663 1.476-1.497 1.476Z"></path>
  <path fill="#D72B27" d="M34.47 15.792c.962 0 1.284.192 1.284.727v15.235c0 .706-.578 1.283-1.284 1.283h-1.284V16.52c0-.556.32-.727 1.284-.727Zm0-.214c-.835 0-1.498.107-1.498.941v16.732h1.498c.834 0 1.497-.663 1.497-1.497V16.519c0-.834-.663-.941-1.497-.941Z"></path>
  <path fill="url(#a)" d="M28.05 33.23 12.13 17.184l.837.34 11.083 7.982 11.919-8.74v14.988c0 .813-.664 1.476-1.498 1.476h-6.42Z"></path>
  <path fill="#D54B3D" d="m23.964 26.02-11.319-8.217c-.663-.492-.856-1.434-.364-2.097a1.552 1.552 0 0 1 2.14-.32l9.564 6.953 9.629-7.04a1.488 1.488 0 0 1 2.097.343 1.488 1.488 0 0 1-.343 2.097l-11.404 8.28Z"></path>
  <path fill="#D72B27" d="M34.47 15.214c.406 0 .791.192 1.048.535.407.578.278 1.37-.278 1.797l-11.276 8.216-11.19-8.13c-.578-.428-.728-1.241-.321-1.798a1.347 1.347 0 0 1 1.07-.534c.277 0 .556.085.77.256l9.543 6.933.128.085.128-.085 9.607-7.04c.236-.15.492-.235.77-.235Zm0-.214c-.3 0-.62.086-.878.278l-9.628 7.04-9.564-6.954a1.492 1.492 0 0 0-.9-.278c-.47 0-.94.214-1.24.62-.47.663-.278 1.605.385 2.097l11.319 8.238 11.383-8.302a1.524 1.524 0 0 0 .342-2.097A1.467 1.467 0 0 0 34.47 15Z"></path>
  <defs>
    <linearGradient id="a" x1="12.129" x2="35.975" y1="24.998" y2="24.998" gradientUnits="userSpaceOnUse">
      <stop stop-opacity=".1"></stop>
      <stop offset="1" stop-opacity=".2"></stop>
    </linearGradient>
  </defs>
</svg>
