<svg id="SvgjsSvg1001" width="288" height="288" xmlns="http://www.w3.org/2000/svg" version="1.1" xmlns:xlink="http://www.w3.org/1999/xlink" xmlns:svgjs="http://svgjs.com/svgjs"><circle id="SvgjsCircle1022" r="144" cx="144" cy="144" transform="matrix(0.7916,0,0,0.7916,30.009600000000006,30.009600000000006)" fill="#87ddfd"></circle><defs id="SvgjsDefs1002"></defs><g id="SvgjsG1008" transform="matrix(0.68,0,0,0.68,46.08,46.08)"><svg xmlns="http://www.w3.org/2000/svg" data-name="20" viewBox="0 0 64 64" width="288" height="288"><path fill="#92dbff" fill-rule="evenodd" d="m60,12c0-4.42-3.58-8-8-8H12C7.58,4,4,7.58,4,12v40c0,4.42,3.58,8,8,8h40c4.42,0,8-3.58,8-8V12h0Z" class="color020202 svgShape"></path><path fill="#ffffff" fill-rule="evenodd" d="m24.13,21.5c5.79,0,10.5,4.7,10.5,10.5s-4.71,10.5-10.5,10.5-10.5-4.71-10.5-10.5,4.7-10.5,10.5-10.5h0Zm16.5.5c2.76,0,5,4.48,5,10s-2.24,10-5,10-5-4.48-5-10,2.24-10,5-10h0Zm7.87,1c1.03,0,1.87,4.03,1.87,9s-.84,9-1.87,9-1.87-4.03-1.87-9,.84-9,1.87-9h0Z" class="colorfff svgShape"></path></svg></g></svg>