<svg id="SvgjsSvg1018" width="288" height="288" xmlns="http://www.w3.org/2000/svg" version="1.1" xmlns:xlink="http://www.w3.org/1999/xlink" xmlns:svgjs="http://svgjs.com/svgjs"><circle id="SvgjsCircle1024" r="144" cx="144" cy="144" transform="matrix(0.9999999999999999,0,0,0.9999999999999999,2.842170943040401e-14,2.842170943040401e-14)" fill="#ffffff"></circle><defs id="SvgjsDefs1019"></defs><g id="SvgjsG1020" transform="matrix(0.7,0,0,0.7,43.199888706207275,43.199674987792974)"><svg xmlns="http://www.w3.org/2000/svg" enable-background="new 0 0 100 100" viewBox="0 0 100 100" width="288" height="288"><path fill="#141414" d="M29.883 23.814c-14.401 0-26.075 11.751-26.075 26.254 1.375 34.831 50.782 34.815 52.151 0C55.96 35.569 44.284 23.814 29.883 23.814zM71.527 25.354c-7.2 0-13.038 11.068-13.038 24.714.715 32.797 25.363 32.797 26.076 0C84.565 36.422 78.728 25.354 71.527 25.354zM91.681 27.925c-6.023.426-6.01 43.885-.001 44.286C97.701 71.789 97.69 28.324 91.681 27.925z" class="color141414 svgShape"></path></svg></g></svg>